<?xml version="1.0" encoding="UTF-8"?>
<svg xmlns="http://www.w3.org/2000/svg" version="1.1" width="520px" height="264px" style="shape-rendering:geometricPrecision; text-rendering:geometricPrecision; image-rendering:optimizeQuality; fill-rule:evenodd; clip-rule:evenodd">
<g><path style="opacity:0.099" fill="#000000" d="M 9.5,-0.5 C 10.5,-0.5 11.5,-0.5 12.5,-0.5C 8.92725,1.72396 6.09392,4.72396 4,8.5C 3.33333,87.8333 3.33333,167.167 4,246.5C 5.83333,250.333 8.66667,253.167 12.5,255C 177.167,255.667 341.833,255.667 506.5,255C 510.667,253.5 513.5,250.667 515,246.5C 515.667,167.167 515.667,87.8333 515,8.5C 513.312,4.31481 510.479,1.31481 506.5,-0.5C 507.5,-0.5 508.5,-0.5 509.5,-0.5C 513.833,1.83333 517.167,5.16667 519.5,9.5C 519.5,90.8333 519.5,172.167 519.5,253.5C 517.167,257.833 513.833,261.167 509.5,263.5C 342.833,263.5 176.167,263.5 9.5,263.5C 5.16667,261.167 1.83333,257.833 -0.5,253.5C -0.5,172.167 -0.5,90.8333 -0.5,9.5C 1.83333,5.16667 5.16667,1.83333 9.5,-0.5 Z"/></g>
<g><path style="opacity:1" fill="#fefefe" d="M 12.5,-0.5 C 177.167,-0.5 341.833,-0.5 506.5,-0.5C 510.479,1.31481 513.312,4.31481 515,8.5C 515.667,87.8333 515.667,167.167 515,246.5C 513.5,250.667 510.667,253.5 506.5,255C 341.833,255.667 177.167,255.667 12.5,255C 8.66667,253.167 5.83333,250.333 4,246.5C 3.33333,167.167 3.33333,87.8333 4,8.5C 6.09392,4.72396 8.92725,1.72396 12.5,-0.5 Z"/></g>
<g><path style="opacity:1" fill="#a7fe81" d="M 106.5,97.5 C 100.518,94.1765 95.5178,89.8432 91.5,84.5C 96.5478,79.1859 101.714,79.1859 107,84.5C 108.965,88.9114 108.799,93.2447 106.5,97.5 Z"/></g>
<g><path style="opacity:1" fill="#a9fe97" d="M 91.5,84.5 C 95.5178,89.8432 100.518,94.1765 106.5,97.5C 104.485,100.869 102.485,104.202 100.5,107.5C 98.572,104.745 96.072,102.411 93,100.5C 92.6174,101.056 92.1174,101.389 91.5,101.5C 93.1677,99.0091 92.8344,96.8425 90.5,95C 86.7068,95.0923 83.3734,94.0923 80.5,92C 84.5084,89.9962 88.1751,87.4962 91.5,84.5 Z"/></g>
<g><path style="opacity:1" fill="#585858" d="M 422.5,95.5 C 427.993,94.178 430.493,96.178 430,101.5C 422.642,105.527 420.142,103.527 422.5,95.5 Z"/></g>
<g><path style="opacity:1" fill="#5c5c5c" d="M 183.5,107.5 C 187.42,107.043 189.92,108.709 191,112.5C 193.589,107.413 197.256,106.413 202,109.5C 203.445,118.726 203.945,128.06 203.5,137.5C 201.5,137.5 199.5,137.5 197.5,137.5C 197.666,129.826 197.5,122.159 197,114.5C 195.333,113.167 193.667,113.167 192,114.5C 191.5,122.159 191.334,129.826 191.5,137.5C 189.5,137.5 187.5,137.5 185.5,137.5C 185.5,129.5 185.5,121.5 185.5,113.5C 183.533,113.261 181.699,113.594 180,114.5C 179.5,122.159 179.334,129.826 179.5,137.5C 177.5,137.5 175.5,137.5 173.5,137.5C 173.5,127.833 173.5,118.167 173.5,108.5C 175.5,108.5 177.5,108.5 179.5,108.5C 179.343,109.873 179.51,111.207 180,112.5C 180.997,110.677 182.164,109.01 183.5,107.5 Z"/></g>
<g><path style="opacity:1" fill="#585858" d="M 217.5,107.5 C 223.798,106.845 228.965,108.845 233,113.5C 233.5,119.825 233.666,126.158 233.5,132.5C 234.833,132.5 236.167,132.5 237.5,132.5C 237.5,134.167 237.5,135.833 237.5,137.5C 232.356,138.802 228.856,137.135 227,132.5C 225.041,136.672 221.708,138.672 217,138.5C 208.209,135.757 206.376,130.591 211.5,123C 216.258,120.856 221.258,120.023 226.5,120.5C 226.896,117.956 226.229,115.789 224.5,114C 220.291,112.811 216.624,113.644 213.5,116.5C 212.019,115.52 210.685,114.353 209.5,113C 211.746,110.391 214.413,108.557 217.5,107.5 Z"/></g>
<g><path style="opacity:1" fill="#575757" d="M 241.5,108.5 C 243.924,108.192 246.257,108.526 248.5,109.5C 251,116.5 253.5,123.5 256,130.5C 258.201,123.397 260.701,116.397 263.5,109.5C 265.833,108.167 268.167,108.167 270.5,109.5C 265.764,121.54 260.931,133.54 256,145.5C 252.556,148.883 248.39,150.216 243.5,149.5C 243.5,147.5 243.5,145.5 243.5,143.5C 248.663,144.527 251.663,142.527 252.5,137.5C 248.245,128.071 244.579,118.404 241.5,108.5 Z"/></g>
<g><path style="opacity:1" fill="#585858" d="M 276.5,108.5 C 278.833,108.5 281.167,108.5 283.5,108.5C 283.334,115.508 283.5,122.508 284,129.5C 284.758,131.91 286.425,132.91 289,132.5C 291.667,132.833 293.667,131.833 295,129.5C 295.5,122.508 295.666,115.508 295.5,108.5C 297.833,108.5 300.167,108.5 302.5,108.5C 302.5,118.167 302.5,127.833 302.5,137.5C 300.167,137.5 297.833,137.5 295.5,137.5C 295.66,135.801 295.494,134.134 295,132.5C 290.69,138.743 285.357,139.743 279,135.5C 278.333,134.167 277.667,132.833 277,131.5C 276.5,123.841 276.334,116.174 276.5,108.5 Z"/></g>
<g><path style="opacity:1" fill="#575757" d="M 310.5,108.5 C 318.833,108.5 327.167,108.5 335.5,108.5C 335.808,110.924 335.474,113.257 334.5,115.5C 329.376,121.125 324.042,126.625 318.5,132C 324.157,132.499 329.824,132.666 335.5,132.5C 335.5,134.167 335.5,135.833 335.5,137.5C 327.167,137.5 318.833,137.5 310.5,137.5C 310.337,135.143 310.503,132.81 311,130.5C 316.5,125 322,119.5 327.5,114C 321.843,113.501 316.176,113.334 310.5,113.5C 310.5,111.833 310.5,110.167 310.5,108.5 Z"/></g>
<g><path style="opacity:1" fill="#565656" d="M 343.5,108.5 C 345.833,108.5 348.167,108.5 350.5,108.5C 350.334,115.508 350.5,122.508 351,129.5C 354.713,133.487 358.38,133.487 362,129.5C 362.5,122.508 362.666,115.508 362.5,108.5C 364.833,108.5 367.167,108.5 369.5,108.5C 369.5,118.167 369.5,127.833 369.5,137.5C 367.167,137.5 364.833,137.5 362.5,137.5C 362.66,135.801 362.494,134.134 362,132.5C 356.747,139.729 351.081,140.062 345,133.5C 343.594,125.251 343.094,116.917 343.5,108.5 Z"/></g>
<g><path style="opacity:1" fill="#595959" d="M 385.5,107.5 C 389.086,107.456 391.419,109.123 392.5,112.5C 394.921,107.355 398.421,106.355 403,109.5C 404.445,118.726 404.945,128.06 404.5,137.5C 402.833,137.5 401.167,137.5 399.5,137.5C 399.666,129.826 399.5,122.159 399,114.5C 397.301,113.594 395.467,113.261 393.5,113.5C 393.5,121.5 393.5,129.5 393.5,137.5C 391.5,137.5 389.5,137.5 387.5,137.5C 387.666,129.826 387.5,122.159 387,114.5C 385.301,113.594 383.467,113.261 381.5,113.5C 381.5,121.5 381.5,129.5 381.5,137.5C 379.5,137.5 377.5,137.5 375.5,137.5C 375.5,127.833 375.5,118.167 375.5,108.5C 377.5,108.5 379.5,108.5 381.5,108.5C 381.351,109.552 381.517,110.552 382,111.5C 382.69,109.65 383.856,108.316 385.5,107.5 Z"/></g>
<g><path style="opacity:1" fill="#575757" d="M 412.5,132.5 C 415.833,132.5 419.167,132.5 422.5,132.5C 422.5,126.167 422.5,119.833 422.5,113.5C 419.167,113.5 415.833,113.5 412.5,113.5C 412.5,111.833 412.5,110.167 412.5,108.5C 418.167,108.5 423.833,108.5 429.5,108.5C 429.5,116.5 429.5,124.5 429.5,132.5C 432.167,132.5 434.833,132.5 437.5,132.5C 437.5,134.167 437.5,135.833 437.5,137.5C 429.167,137.5 420.833,137.5 412.5,137.5C 412.5,135.833 412.5,134.167 412.5,132.5 Z"/></g>
<g><path style="opacity:1" fill="#cbcbcb" d="M 412.5,113.5 C 415.833,113.5 419.167,113.5 422.5,113.5C 422.5,119.833 422.5,126.167 422.5,132.5C 419.167,132.5 415.833,132.5 412.5,132.5C 415.287,131.523 418.287,131.19 421.5,131.5C 421.5,125.833 421.5,120.167 421.5,114.5C 418.287,114.81 415.287,114.477 412.5,113.5 Z"/></g>
<g><path style="opacity:1" fill="#72fe7f" d="M 100.5,107.5 C 92.6713,128.991 100.005,138.324 122.5,135.5C 124.527,135.338 126.527,135.505 128.5,136C 131.062,138.413 134.062,140.08 137.5,141C 139.208,143.043 141.208,144.71 143.5,146C 143.167,146.333 142.833,146.667 142.5,147C 144.464,148.451 145.797,150.284 146.5,152.5C 141.812,158.184 135.812,161.85 128.5,163.5C 127.167,163.5 125.833,163.5 124.5,163.5C 122.001,160.831 119.668,157.998 117.5,155C 111.765,150.603 106.098,145.936 100.5,141C 98.1218,140.489 95.7885,139.822 93.5,139C 91,135.167 87.8333,132 84,129.5C 83.5045,127.527 83.3379,125.527 83.5,123.5C 85.593,115.976 88.2597,108.643 91.5,101.5C 92.1174,101.389 92.6174,101.056 93,100.5C 96.072,102.411 98.572,104.745 100.5,107.5 Z"/></g>
<g><path style="opacity:1" fill="#a8fe81" d="M 155.5,137.5 C 152.327,134.832 148.993,132.332 145.5,130C 143.536,128.549 142.203,126.716 141.5,124.5C 144.503,120.491 147.503,116.491 150.5,112.5C 153.158,118.6 152.825,124.6 149.5,130.5C 149.833,130.833 150.167,131.167 150.5,131.5C 152.193,129.973 154.027,128.64 156,127.5C 156.747,130.924 156.58,134.257 155.5,137.5 Z"/></g>
<g><path style="opacity:1" fill="#f5f5f5" d="M 218.5,124.5 C 221.167,124.5 223.833,124.5 226.5,124.5C 227.993,130.051 225.993,133.051 220.5,133.5C 216.011,133.167 214.511,130.833 216,126.5C 216.995,125.934 217.828,125.267 218.5,124.5 Z"/></g>
<g><path style="opacity:1" fill="#a8fe95" d="M 141.5,124.5 C 142.203,126.716 143.536,128.549 145.5,130C 148.993,132.332 152.327,134.832 155.5,137.5C 154.341,141.151 152.674,144.485 150.5,147.5C 144.721,141.78 138.387,136.78 131.5,132.5C 134.794,129.844 138.127,127.178 141.5,124.5 Z"/></g>
<g><path style="opacity:1" fill="#94fe88" d="M 131.5,132.5 C 138.387,136.78 144.721,141.78 150.5,147.5C 149.396,149.389 148.063,151.055 146.5,152.5C 145.797,150.284 144.464,148.451 142.5,147C 142.833,146.667 143.167,146.333 143.5,146C 141.208,144.71 139.208,143.043 137.5,141C 134.062,140.08 131.062,138.413 128.5,136C 126.527,135.505 124.527,135.338 122.5,135.5C 125.341,134.331 128.341,133.331 131.5,132.5 Z"/></g>
<g><path style="opacity:1" fill="#96feca" d="M 82.5,141.5 C 91.6019,148.759 100.602,156.259 109.5,164C 114.489,164.499 119.489,164.666 124.5,164.5C 109.607,168.036 97.1074,164.036 87,152.5C 84.9281,149.029 83.4281,145.362 82.5,141.5 Z"/></g>
<g><path style="opacity:1" fill="#7ffeaf" d="M 82.5,127.5 C 81.8259,132.162 83.4926,135.662 87.5,138C 92.1254,141.402 97.1254,144.069 102.5,146C 108.178,152.012 114.178,157.679 120.5,163C 121.793,163.49 123.127,163.657 124.5,163.5C 125.833,163.5 127.167,163.5 128.5,163.5C 127.432,164.434 126.099,164.768 124.5,164.5C 119.489,164.666 114.489,164.499 109.5,164C 100.602,156.259 91.6019,148.759 82.5,141.5C 81.3222,136.688 81.3222,132.021 82.5,127.5 Z"/></g>
<g><path style="opacity:1" fill="#71ff9a" d="M 83.5,123.5 C 83.3379,125.527 83.5045,127.527 84,129.5C 87.8333,132 91,135.167 93.5,139C 95.7885,139.822 98.1218,140.489 100.5,141C 106.098,145.936 111.765,150.603 117.5,155C 119.668,157.998 122.001,160.831 124.5,163.5C 123.127,163.657 121.793,163.49 120.5,163C 114.178,157.679 108.178,152.012 102.5,146C 97.1254,144.069 92.1254,141.402 87.5,138C 83.4926,135.662 81.8259,132.162 82.5,127.5C 82.2322,125.901 82.5655,124.568 83.5,123.5 Z"/></g>
</svg>
